<?xml version="1.0" encoding="utf-8"?>
<!-- Generator: Adobe Illustrator 27.2.0, SVG Export Plug-In . SVG Version: 6.00 Build 0)  -->
<svg version="1.1" id="Layer_1" xmlns="http://www.w3.org/2000/svg" xmlns:xlink="http://www.w3.org/1999/xlink" x="0px" y="0px"
	 viewBox="0 0 500 500" style="enable-background:new 0 0 500 500;" xml:space="preserve">
<g>
	<g>
		<path d="M249.6,82.7h0.1c92.4,0.1,167.8,75.4,167.7,167.7C417.3,342.8,342.1,418,249.7,418c-0.1,0-0.2,0-0.3,0
			C157,417.9,81.9,342.5,82,250.2S157.3,82.7,249.6,82.7 M249.6,61.7C145.7,61.7,61.1,146.2,61,250.2s84.4,188.7,188.4,188.9h0.3
			c103.9,0,188.6-84.6,188.7-188.7c0-25.4-5-50-14.8-73.3c-9.5-22.4-23.1-42.6-40.5-59.9c-17.3-17.3-37.5-31-60-40.5
			c-23.3-9.9-48-14.9-73.4-14.9L249.6,61.7L249.6,61.7L249.6,61.7z"/>
	</g>
	<path d="M261,207.7c15.2,0.6,22.9,10.2,18.9,26c-2.8,11.3-7.2,22.2-11.1,33.3c-4.8,13.5-10,26.9-14.8,40.3c-1.1,3-2.1,6.2-2.6,9.3
		c-0.7,4.4,2.3,6.5,6.2,4.4c2.8-1.5,5.4-3.6,7.7-5.9c4.9-5,9.4-10.3,14.3-15.3c1.4-1.5,2.9-4,5.6-2.1c2.4,1.8,2.1,4.3,0.9,6.7
		c-0.8,1.7-1.7,3.3-2.9,4.8c-11.3,14.9-25.3,26.4-42.8,33.5c-7.2,2.9-14.8,4.5-22.7,2.7c-7.1-1.7-11.1-6.5-11.4-13.8
		c-0.4-9,1.9-17.6,5-25.9c8.5-22.6,17.3-45.1,26-67.6c0.1-0.2,0.2-0.4,0.3-0.7c1-3,3.1-6.5-0.3-8.9c-3.1-2.2-6.5-0.1-8.8,2.1
		c-4.9,4.6-9.4,9.6-14,14.5c-2.1,2.2-3.9,4.6-6.2,6.5c-1.1,0.9-4,1.3-4.5,0.7c-1-1.3-1.2-3.4-1.3-5.2c-0.1-0.7,0.6-1.6,1.1-2.3
		c11-14.7,23.6-27.5,41.5-33.5C250.1,209.6,255.6,208.9,261,207.7z"/>
	<path d="M253.9,177.9c0-15.5,15.6-27,30.4-22.4c10.5,3.2,15.9,14.6,12.2,26.1c-4.1,12.6-18.4,19.5-30.8,14.9
		C258.2,193.7,253.9,186.9,253.9,177.9z"/>
</g>
</svg>
