<?xml version="1.0" encoding="utf-8"?>
<!-- Generator: Adobe Illustrator 27.4.0, SVG Export Plug-In . SVG Version: 6.00 Build 0)  -->
<svg version="1.1" id="Layer_1" xmlns="http://www.w3.org/2000/svg" xmlns:xlink="http://www.w3.org/1999/xlink" x="0px" y="0px"
	 viewBox="0 0 100 100" style="enable-background:new 0 0 100 100;" xml:space="preserve">
<g>
	<path d="M82.1,2.5c0.6,0.1,1.1,0.3,1.7,0.4c7.1,1.9,10.9,9.7,8,16.5c-0.1,0.2-0.1,0.3-0.2,0.5c-0.4,0.7-1.1,1-1.8,0.7
		c-0.7-0.3-1-1-0.7-1.9c0.7-1.7,1.1-3.5,0.8-5.4c-0.6-4.4-4.5-7.9-8.9-8c-4.6-0.1-8.7,3.1-9.5,7.5c-0.7,3.9,0.6,7.2,3.8,9.5
		c3.3,2.3,6.7,2.3,10.2,0.3c0.5-0.3,1.2-0.4,1.7-0.2c1,0.4,1,1.7,0.1,2.4c-1.5,1-3.1,1.6-4.9,1.9c-0.2,0-0.4,0.1-0.7,0.1
		c0,0.3,0,0.7,0,1c0,5.5,0,11,0,16.5c0,0.7,0.2,1,0.8,1.3c3.4,1.7,6.8,3.5,10.2,5.2c0.9,0.5,1.3,1.1,1.2,2c0,12.2,0,24.4,0,36.6
		c0,4.8-3.2,8-8,8c-7.2,0-14.3,0-21.5,0c-0.2,0-0.4,0-0.6,0c-0.8-0.1-1.4-0.6-1.4-1.4c0-0.8,0.6-1.4,1.4-1.4c1.9,0,3.8,0,5.8,0
		c1.5,0,3,0,4.7,0c-6.4-7.3-12.7-14.5-19-21.7c-0.9,0.5-1.9,0.9-2.7,1.4c-1.8,0.9-3.5,0.9-5.3,0c-0.7-0.4-1.5-0.7-2.1-1.1
		c-0.6-0.3-0.9-0.2-1.3,0.3c-3.2,3.7-6.5,7.4-9.7,11.1c-2.8,3.2-5.5,6.3-8.3,9.5c-0.1,0.2-0.3,0.3-0.5,0.6c0.5,0,0.8,0,1.1,0
		c10.4,0,20.8,0,31.3,0c0.3,0,0.6,0,0.8,0c0.9,0,1.4,0.6,1.5,1.4c0,0.8-0.6,1.4-1.5,1.4c-0.2,0-0.4,0-0.6,0c-14.8,0-29.6,0-44.4,0
		c-4.8,0-7.8-3-7.8-7.8c0-12.3,0-24.6,0-36.9c0-1.1,0.4-1.7,1.3-2.2c3.4-1.7,6.8-3.5,10.2-5.2c0.6-0.3,0.8-0.7,0.8-1.4
		c0-9.7,0-19.4,0-29.1c0-0.7,0-1.5,0.3-2.2c0.6-2,2.4-3.3,4.5-3.4c1.6,0,3.2,0,4.7,0c1,0,1.5,0.5,1.6,1.3c0,0.9-0.6,1.4-1.6,1.4
		c-1.5,0-3,0-4.5,0c-1.4,0-2.2,0.8-2.3,2.2c0,0.2,0,0.5,0,0.7c0,13.8,0,27.6,0,41.5c0,0.8,0.2,1.2,0.9,1.6
		c8.9,4.6,17.8,9.1,26.7,13.7c1.1,0.6,2.1,0.6,3.2,0c8.8-4.6,17.7-9.1,26.5-13.6c0.5-0.3,0.8-0.5,0.8-1.2c0-9.9,0-19.8,0-29.7
		c0-0.2,0-0.4,0-0.6c-7.5-2-11-6.8-10.3-14.6c-0.3,0-0.7,0-1.1,0c-11.3,0-22.5,0-33.8,0c-0.4,0-0.8,0-1.1-0.1
		c-0.7-0.2-1.1-0.7-1.1-1.4c0.1-0.7,0.5-1.2,1.3-1.3c0.3,0,0.6,0,0.9,0c11.7,0,23.3,0,35,0c0.7,0,1-0.2,1.4-0.8
		c1.9-3.2,4.7-5.2,8.4-5.9c0.2,0,0.3-0.1,0.5-0.2C80.1,2.5,81.1,2.5,82.1,2.5z M8.7,54.4c0,3.9,0,7.5,0,11.2c0,8,0,16.1,0,24.1
		c0,3.3,1.8,5.1,5,5.1c2.3,0,4.7,0,7,0c0.7,0,1.2-0.2,1.7-0.7c5.3-6.1,10.6-12.1,15.8-18.2c1.2-1.4,2.5-2.8,3.7-4.3
		C30.9,65.8,19.9,60.1,8.7,54.4z M58.1,71.6c0.1,0.2,0.1,0.2,0.2,0.3c6.5,7.5,13,14.9,19.5,22.3c0.2,0.3,0.7,0.4,1.1,0.4
		c2.3,0,4.6,0,6.9,0c3.6,0,5.5-1.9,5.5-5.5c0-11.2,0-22.3,0-33.5c0-0.3,0-0.6,0-1.1C80.1,60.3,69.2,66,58.1,71.6z M89.6,52.3
		c-2.7-1.4-5.2-2.7-7.8-4c0,2.7,0,5.3,0,8C84.5,55,87,53.7,89.6,52.3z M10.4,52.1c2.7,1.4,5.2,2.6,7.7,4c0-2.7,0-5.3,0-7.9
		C15.5,49.5,13,50.8,10.4,52.1z"/>
	<path d="M36.1,45.7c-4.8-8.5-1.4-17.3,4.3-21.4c6-4.4,14.2-4.2,19.9,0.4c5.7,4.6,8.1,13.2,3.7,21c0.3,0.1,0.6,0.2,0.8,0.3
		c2.2,0.9,3.7,3.2,3.4,5.5c-0.3,2.4-2.1,4.4-4.6,4.7c-0.5,0.1-0.7,0.3-0.9,0.7c-1,2.5-3,3.9-5.7,3.9c-4.6,0-9.3,0-13.9,0
		c-2.8,0-4.8-1.4-5.8-4c-0.1-0.3-0.4-0.6-0.7-0.6c-2.6-0.5-4.5-2.3-4.7-4.8c-0.2-2.5,1.2-4.7,3.8-5.6C35.8,45.8,35.9,45.7,36.1,45.7
		z M51.1,53.4c0-1.1-0.1-2.2,0-3.2c0-0.4,0.2-1,0.5-1.3c0.3-0.2,1-0.4,1.3-0.2c0.4,0.3,0.8,0.9,0.8,1.4c0.1,1.1,0,2.2,0,3.3
		c0.8,0,1.4,0,2.2,0c0-1.2,0-2.3,0-3.5c0-0.8,0.5-1.3,1.3-1.3c0.7-0.1,1.2,0.3,1.4,1.1c0.1,0.4,0.1,0.7,0.1,1.1c0,0.9,0,1.8,0,2.7
		c1.6,0,2.9,0,4.3,0c1,0,1.7-0.7,2.1-1.6c0.6-1.6-0.4-3.2-2.3-3.4c-1.1-0.1-1.8-0.6-2.1-1.6c-0.3-0.8,0.1-1.6,0.5-2.3
		c1.8-2.8,2.5-6,2-9.3c-1.2-7.1-7.1-11.8-14.3-11.4c-6.4,0.4-11.9,5.9-12.3,12.2c-0.2,3.2,0.5,6,2.3,8.7c1,1.6,0.2,3.3-1.6,3.6
		c-0.3,0-0.6,0.1-0.8,0.1c-1,0.3-1.8,1.2-1.8,2.3c0,1.1,0.6,2.3,1.7,2.4c1.6,0.2,3.2,0,4.9,0c0-0.9,0-1.9,0-2.8c0-0.3,0-0.6,0.1-0.9
		c0.2-0.7,0.7-1,1.4-1c0.8,0.1,1.3,0.5,1.3,1.3c0,1.2,0,2.3,0,3.5c0.8,0,1.4,0,2.2,0c0-1.1,0-2.1,0-3.2c0-1,0.5-1.6,1.4-1.7
		c0.9,0,1.4,0.6,1.4,1.7c0,1,0,2.1,0,3.2C49.7,53.4,50.3,53.4,51.1,53.4z M59.9,56.2c-6.7,0-13.2,0-19.9,0c0.6,1.1,1.5,1.7,2.6,1.7
		c4.9,0,9.8,0,14.7,0C58.5,58,59.3,57.3,59.9,56.2z"/>
	<path d="M79.3,12.2c0-1,0-2,0-3.1c0-0.9,0.6-1.5,1.3-1.5c0.8,0,1.4,0.5,1.4,1.4c0,2.1,0,4.3,0,6.4c0,0.9-0.7,1.4-1.4,1.4
		c-0.8,0-1.3-0.6-1.3-1.5C79.3,14.3,79.3,13.3,79.3,12.2z"/>
	<path d="M50,83.4c-0.9,0-1.8,0-2.7,0c-0.9,0-1.5-0.5-1.5-1.3c0-0.8,0.6-1.4,1.5-1.4c1.8,0,3.6,0,5.5,0c0.9,0,1.5,0.6,1.5,1.4
		c0,0.8-0.6,1.3-1.6,1.3C51.8,83.4,50.9,83.4,50,83.4z"/>
	<path d="M79.3,19.6c-0.1-0.8,0.1-1.6,0.9-1.8c0.5-0.1,1.1,0.1,1.5,0.5c0.5,0.4,0.5,2.2,0,2.7c-0.4,0.3-1,0.6-1.4,0.5
		C79.3,21.3,79.2,20.4,79.3,19.6z"/>
	<path d="M61.1,36.1c0,2.8-2.2,5.1-5,5.2c-2.8,0.1-5.2-2.1-5.3-4.9c0-0.5,0.2-1.1,0.6-1.5c1.1-1.2,2.2-2.3,3.4-3.4
		c0.4-0.4,1.2-0.6,1.7-0.6C59.2,31.2,61.1,33.5,61.1,36.1z M58.5,36c-0.3-0.6-0.6-1.2-1-1.7c-0.5-0.6-1.1-0.7-1.7,0
		c-0.5,0.7-1.2,1.3-1.8,1.8c-0.4,0.4-0.4,0.7-0.1,1.1c0.5,0.9,1.6,1.4,2.6,1.1C57.6,38.1,58.3,37.2,58.5,36z"/>
	<path d="M38.9,36c0-2.6,2-4.8,4.6-5.1c0.7-0.1,1.3,0.1,1.8,0.6c1.1,1.1,2.3,2.2,3.3,3.4c0.4,0.4,0.6,1,0.6,1.5
		c-0.2,2.8-2.6,4.9-5.4,4.8C41.1,41.1,38.9,38.8,38.9,36z M41.5,36c0.1,1.1,0.8,2,1.8,2.4c1,0.3,2.1,0,2.7-0.9
		c0.4-0.5,0.4-0.9-0.1-1.4c-0.6-0.5-1.1-1.1-1.7-1.7c-0.8-0.8-1.2-0.8-1.9,0C42,34.9,41.8,35.4,41.5,36z"/>
</g>
</svg>
