<?xml version="1.0" encoding="utf-8"?>
<!-- Generator: Adobe Illustrator 27.4.0, SVG Export Plug-In . SVG Version: 6.00 Build 0)  -->
<svg version="1.1" id="Layer_1" xmlns="http://www.w3.org/2000/svg" xmlns:xlink="http://www.w3.org/1999/xlink" x="0px" y="0px"
	 viewBox="0 0 100 100" style="enable-background:new 0 0 100 100;" xml:space="preserve">
<g>
	<path d="M89.3,97.5c-26.2,0-52.4,0-78.7,0c-0.1,0-0.1-0.1-0.2-0.1c-5.1-1.2-7.9-4.7-7.9-9.9c0-25,0-50,0-74.9
		c0-0.9,0.1-1.9,0.3-2.8c1.1-4.4,4.8-7.3,9.6-7.3c25,0,50.1,0,75.1,0c0.3,0,0.6,0,0.8,0c4.1,0.1,7.7,3,8.8,6.9
		c0.1,0.4,0.2,0.8,0.4,1.2c0,26.2,0,52.4,0,78.7c-0.1,0.2-0.1,0.4-0.2,0.6c-0.8,3.2-2.7,5.5-5.7,6.9C90.9,97.1,90.1,97.3,89.3,97.5z
		 M5.7,24.7c0,0.4,0,0.7,0,1c0,20.6,0,41.2,0,61.8c0,4.2,2.6,6.9,6.9,6.9c24.9,0,49.9,0,74.8,0c4.3,0,6.9-2.6,6.9-7
		c0-20.5,0-41.1,0-61.6c0-0.3,0-0.7,0-1.1C64.8,24.7,35.2,24.7,5.7,24.7z M94.3,21.5c0-0.3,0-0.6,0-0.8c0-2.8,0-5.6,0-8.4
		c0-3.8-2.7-6.5-6.6-6.5c-25.2,0-50.3,0-75.5,0c-3.9,0-6.6,2.7-6.6,6.6c0,2.8,0,5.6,0,8.3c0,0.3,0,0.5,0,0.8
		C35.3,21.5,64.7,21.5,94.3,21.5z"/>
	<path d="M31.7,62.7c-6.9-10.4-4-23,4.1-29.7c7.9-6.6,19.4-6.8,27.6-0.6c7.9,6,12.3,19,4.8,30.3c0.4,0,0.7,0,1,0c3.4,0,6.9,0,10.3,0
		c4.1,0,6.8,2.6,6.8,6.8c0,5,0,10,0,14.9c0,4.2-2.6,6.8-6.8,6.8c-19.8,0-39.5,0-59.3,0c-4.1,0-6.7-2.6-6.7-6.7c0-5,0-10.1,0-15.1
		c0-4,2.7-6.7,6.7-6.7c3.4,0,6.9,0,10.3,0C30.9,62.7,31.3,62.7,31.7,62.7z M55.4,62.7c-1.4-1.5-2.7-2.9-4.1-4.2
		c-0.7-0.7-1.8-0.7-2.5-0.1c-1.4,1.4-2.7,2.9-4,4.3c0.6,0,1.3,0,2,0c1,0.1,1.6,0.7,1.6,1.6c0,0.9-0.6,1.5-1.6,1.5
		c-0.3,0-0.6,0-0.8,0c-6.6,0-13.3,0-19.9,0c-2,0-4,0-5.9,0c-1.9,0-3.3,1.3-3.3,3.2c0,5.3,0,10.6,0,15.9c0,1.1,0.4,2,1.3,2.5
		c0.7,0.4,1.5,0.6,2.3,0.6c19.8,0,39.6,0,59.3,0c0.2,0,0.3,0,0.5,0c1.8-0.1,3.1-1.4,3.1-3.2c0-5.3,0-10.5,0-15.8
		c0-1.1-0.4-2.1-1.3-2.6c-0.7-0.4-1.6-0.6-2.4-0.6c-8.6,0-17.2,0-25.9,0c-1.3,0-2.1-0.6-2-1.6c0-1,0.7-1.6,2.1-1.6
		C54.3,62.6,54.8,62.7,55.4,62.7z M69,49.9c0-0.6,0-1.3-0.1-2.1c-1.3-10.8-11-18.2-21.7-16.6c-13.9,2-20.8,18.3-12.6,29.7
		c0.9,1.2,1.7,2,3.3,1.7c0.4-0.1,0.9,0.1,1.4,0c0.4-0.1,0.9-0.2,1.2-0.5c1.9-1.8,3.8-3.7,5.7-5.6c2.3-2.3,5.6-2.3,7.9,0
		c1.3,1.3,2.7,2.5,3.8,3.9c1.5,1.9,3.3,2.6,5.6,2.2c0.4-0.1,0.9-0.3,1.2-0.6C67.5,58.6,68.9,54.6,69,49.9z"/>
	<path d="M78.6,18.3c-2.6,0-5.1,0-7.7,0c-2.9,0-5.1-2.1-5-4.8c0-2.7,2.2-4.7,5-4.7c5.2,0,10.3,0,15.5,0c2.5,0,4.5,1.8,4.8,4.3
		c0.3,2.2-1.2,4.4-3.5,5c-0.5,0.1-1.1,0.2-1.7,0.2C83.5,18.3,81,18.3,78.6,18.3z M78.5,15.2c2.5,0,5.1,0,7.6,0
		c1.2,0,1.9-0.6,1.9-1.5c0-1-0.7-1.6-2-1.6c-5,0-10.1,0-15.1,0c-1.2,0-1.9,0.6-1.9,1.6c0,1,0.7,1.6,1.9,1.6
		C73.5,15.2,76,15.2,78.5,15.2z"/>
	<path d="M26.3,18.3c-2.6,0-4.8-2.1-4.8-4.7c0-2.6,2.1-4.7,4.7-4.7c2.6,0,4.8,2.1,4.8,4.8C31,16.2,28.9,18.3,26.3,18.3z M26.3,15.1
		c0.9,0,1.6-0.7,1.5-1.6c0-0.8-0.7-1.5-1.6-1.5c-0.9,0-1.6,0.7-1.6,1.6C24.7,14.5,25.4,15.2,26.3,15.1z"/>
	<path d="M18.3,13.6c0,2.6-2.1,4.7-4.7,4.7c-2.7,0-4.8-2.1-4.8-4.8c0-2.6,2.2-4.7,4.7-4.7C16.2,8.8,18.3,11,18.3,13.6z M13.6,12
		c-0.9,0-1.6,0.7-1.6,1.6c0,0.8,0.7,1.5,1.5,1.5c0.9,0,1.6-0.6,1.6-1.5C15.2,12.7,14.5,12,13.6,12z"/>
	<path d="M39,18.3c-2.6,0-4.7-2-4.8-4.7c0-2.7,2.1-4.8,4.7-4.8c2.6,0,4.8,2.1,4.8,4.8C43.7,16.2,41.6,18.3,39,18.3z M38.9,12
		c-0.9,0-1.6,0.7-1.6,1.6c0,0.9,0.6,1.5,1.5,1.5c0.9,0,1.6-0.7,1.6-1.5C40.5,12.8,39.8,12,38.9,12z"/>
	<path d="M34.5,75.4c-0.3-0.1-0.4-0.1-0.6-0.1c-0.9-0.2-1.4-0.9-1.3-1.6c0.1-0.8,0.7-1.5,1.5-1.4c1.1,0.1,1.3-0.4,1.5-1.3
		c0.3-1.5,1-2.1,2-1.9c1.1,0.2,1.4,1,1,2.6c0,0.1,0,0.2,0,0.5c0.9,0,1.8,0,2.7,0c0.2,0,0.4-0.3,0.4-0.5c0.2-0.5,0.2-1,0.4-1.5
		c0.3-0.8,1-1.3,1.8-1.1c0.9,0.2,1.3,0.8,1.3,1.8c0,0.4-0.2,0.8-0.2,1.3c0.1,0.1,0.2,0.1,0.3,0.1c1.1,0.3,1.6,0.9,1.6,1.7
		c-0.1,0.9-0.7,1.4-1.8,1.4c-0.7,0-1,0.2-1.1,0.9c-0.1,0.7-0.3,1.4-0.5,2.2c0.2,0.1,0.4,0.1,0.6,0.1c0.8,0.2,1.2,0.7,1.2,1.5
		c0,0.8-0.5,1.5-1.2,1.5c-1.6-0.1-1.7,1-2,2c-0.2,0.9-0.9,1.3-1.7,1.2c-0.8-0.1-1.4-0.7-1.4-1.5c0-0.5,0.2-1,0.3-1.6
		c-0.9,0-1.7,0-2.5,0c-0.2,0-0.5,0.3-0.6,0.5c-0.2,0.5-0.2,1-0.4,1.5c-0.3,0.8-1.1,1.3-1.9,1c-0.8-0.2-1.3-1-1.1-1.9
		c0.1-0.4,0.2-0.7,0.3-1.1c-0.3-0.1-0.6-0.1-0.9-0.3c-0.7-0.3-1-0.9-0.9-1.6c0.1-0.7,0.5-1.4,1.2-1.3c1.5,0.2,1.7-0.8,1.9-1.8
		C34.2,76.3,34.4,75.9,34.5,75.4z M40.8,75.3c-1,0-1.8,0-2.6,0c-0.2,0-0.5,0.2-0.5,0.4c-0.3,0.9-0.5,1.8-0.7,2.8c0.9,0,1.8,0,2.6,0
		c0.2,0,0.5-0.2,0.5-0.4C40.4,77.3,40.6,76.4,40.8,75.3z"/>
	<path d="M70.6,74.3c1.2-1.5,2.2-3,3.3-4.4c0.4-0.4,1.1-0.8,1.6-0.8c1.3,0,1.8,1.4,1,2.6c-1.1,1.6-2.3,3.1-3.5,4.6
		c-0.4,0.5-0.4,0.9,0,1.4c1.1,1.5,2.2,3,3.3,4.4c0.7,0.9,0.6,1.9-0.2,2.4c-0.8,0.5-1.6,0.4-2.3-0.5c-1.1-1.4-2.2-2.9-3.3-4.4
		c-0.3,0.4-0.5,0.7-0.8,1c-0.9,1.2-1.7,2.3-2.6,3.5c-0.6,0.8-1.5,1-2.3,0.4C64.2,84,64,83,64.6,82.2c1.3-1.7,2.6-3.5,4-5.3
		c-0.7-0.9-1.4-1.9-2.1-2.8c-0.6-0.7-1.1-1.5-1.7-2.2c-0.8-1.1-0.8-2,0.1-2.6c0.8-0.6,1.7-0.3,2.4,0.7
		C68.4,71.4,69.4,72.7,70.6,74.3z"/>
	<path d="M48.5,83c0.4-1.6,0.8-3.3,1.2-5c0.6-2.4,1.2-4.8,1.8-7.3c0-0.2,0.1-0.4,0.2-0.5c0.3-0.9,1-1.3,1.9-1.1
		c0.9,0.2,1.4,0.9,1.2,1.9c-0.6,2.4-1.2,4.9-1.8,7.3c-0.4,1.8-0.9,3.6-1.4,5.4c-0.2,0.9-1,1.4-1.8,1.2C48.9,84.6,48.4,84,48.5,83z"
		/>
	<path d="M27.8,73.8c0,1,0,2,0,3c0,1.1-0.7,1.8-1.6,1.7c-0.9,0-1.5-0.7-1.5-1.8c0-2,0-4,0-6c0-1,0.7-1.7,1.6-1.7
		c0.9,0,1.5,0.7,1.6,1.7C27.9,71.7,27.8,72.8,27.8,73.8z"/>
	<path d="M61.1,73.8c0,1,0,2,0,3c0,1-0.7,1.7-1.6,1.7c-0.9,0-1.6-0.7-1.6-1.8c0-2,0-4,0-5.9c0-1.1,0.7-1.8,1.6-1.8
		c0.9,0,1.5,0.7,1.6,1.7C61.1,71.8,61.1,72.8,61.1,73.8z"/>
	<path d="M61.1,83.2c0,0.8-0.7,1.6-1.6,1.6c-0.9,0-1.6-0.7-1.5-1.6c0-0.9,0.6-1.5,1.5-1.5C60.3,81.7,61.1,82.4,61.1,83.2z"/>
	<path d="M27.8,83.2c0,0.9-0.7,1.6-1.6,1.6c-0.9,0-1.6-0.7-1.5-1.6c0-0.9,0.7-1.5,1.5-1.5C27.1,81.7,27.8,82.4,27.8,83.2z"/>
	<path d="M41.3,51.6c-3.9,0-6.5-4-5.1-7.7c0.1-0.3,0-0.8,0-1.2c0.1-0.6,0-1.3,0.3-1.7c0.3-0.4,1.2-0.6,1.6-0.4
		c3.2,1.3,6.3,2.6,9.4,4c0.7,0.3,1,0.9,0.8,1.6c-0.2,0.5-0.7,1.1-1.1,1.3c-0.4,0.2-0.7,0.3-0.9,0.8C45.4,50.3,43.4,51.6,41.3,51.6z
		 M39.5,44.6c-0.9,1.2-0.6,2.6,0.6,3.4c1.2,0.7,2.7,0.3,3.3-0.9c0.2-0.3,0.4-0.7-0.2-0.9C42,45.7,40.7,45.1,39.5,44.6z"/>
	<path d="M58.6,51.6c-2.2-0.1-3.9-1.2-4.9-3.3c-0.1-0.3-0.4-0.6-0.7-0.7c-0.8-0.2-1.3-0.6-1.3-1.4c-0.1-0.8,0.3-1.3,1.1-1.7
		c2.2-1,4.5-1.9,6.7-2.9c0.8-0.3,1.5-0.7,2.3-1c0.7-0.3,1.3-0.2,1.9,0.4c0.5,0.5,0.5,1.1,0.2,1.8c-0.1,0.3-0.1,0.8,0.1,1.1
		C65.3,47.6,62.7,51.6,58.6,51.6z M56.5,46.4c0.2,1.1,0.8,1.8,1.8,2c1.1,0.2,2-0.3,2.5-1.2c0.5-0.9,0.4-1.7-0.3-2.6
		C59.1,45.2,57.8,45.8,56.5,46.4z"/>
</g>
</svg>
