<?xml version="1.0" encoding="utf-8"?>
<!-- Generator: Adobe Illustrator 27.2.0, SVG Export Plug-In . SVG Version: 6.00 Build 0)  -->
<svg version="1.1" id="Layer_1" xmlns="http://www.w3.org/2000/svg" xmlns:xlink="http://www.w3.org/1999/xlink" x="0px" y="0px"
	 viewBox="0 0 500 500" style="enable-background:new 0 0 500 500;" xml:space="preserve">
<path d="M250,74.9c3.8,0,7.5,2.1,11.7,6.3C314,133.5,366.2,185.8,418.6,238c4.3,4.3,7.6,8.8,5.8,15.3c-1.6,5.8-6.4,9.7-12.4,9.8
	c-2,0-4,0.1-6,0.1c-2.6,0-5.1,0-7.7,0c-1,0-2,0-2.9,0c-8.2,0.1-12.9,4.8-12.9,13.1c0,42.2,0,84.4,0,126.6c0,14.5-7.6,22.1-22.2,22.1
	c-6.3,0-12.7,0-19,0c-9.8,0-19.8,0-29.9,0c0-1.7,0-3.2,0-4.7c0-25.4,0.1-50.8,0-76.3c-0.1-21.2-13.4-37.9-33.7-42.5
	c-1.1-0.3-2.3-0.5-3.4-0.5c-10,0-19.9-0.4-29.9-0.4c-6,0-12,0.1-18,0.5c-20.5,1.4-37.1,19.5-37.4,40.2c-0.4,26.2-0.1,52.4-0.2,78.6
	c0,1.5,0,3,0,5c-10.7,0-21.3,0.1-31.7,0.1c-7.2,0-14.4,0-21.5-0.2c-10.4-0.2-17.9-9.1-17.9-20.1c0-41.5,0-83.1,0-124.6
	c0-1.5,0-3.1,0-4.6c-0.2-7.3-5-12.1-12.2-12.2c-2.5,0-5-0.1-7.4-0.1c-2.9,0-5.9,0-8.8,0c-0.1,0-0.1,0-0.2,0c-6,0-10.4-2.6-12.8-8.1
	c-2.5-5.7-1-10.8,3.4-15.2c6.4-6.4,12.8-12.8,19.2-19.1c46.5-46.5,93.1-93.1,139.6-139.6C242.5,77.1,246.3,74.9,250,74.9 M250,58.9
	c-8.1,0-15.6,3.6-23.1,11l-68.8,68.8l-70.8,70.8c-5,5-10,10-15.1,15l-4.1,4.1c-9.2,9.1-11.7,21.4-6.8,32.8
	c4.8,11.3,14.9,17.7,27.5,17.7h0.3c2.7,0,5.7,0,8.7,0c1.3,0,2.5,0,3.6,0c0,0.3,0,0.6,0,0.9c0,11.3,0,22.7,0,34c0,29.7,0,60.4,0,90.6
	c0,9.2,3.2,18,9,24.6c6.3,7.2,15,11.2,24.5,11.4c6.4,0.1,13.4,0.2,21.9,0.2c5.2,0,10.6,0,15.7,0c5.2,0,10.6,0,16,0h16v-16V423v-3.1
	c0-7.9,0-15.9,0-23.7c0-17.9-0.1-36.5,0.2-54.6c0.2-12.4,10.5-23.6,22.4-24.4c5-0.3,10.4-0.5,17-0.5c5.1,0,10.3,0.1,15.4,0.2
	c4.5,0.1,9.2,0.2,13.8,0.2c0.1,0,0.3,0.1,0.4,0.1l0.2,0.1c13,3,21.2,13.3,21.2,26.9c0.1,17.7,0.1,35.7,0,53.1c0,7.7,0,15.4,0,23.1v3
	v1.7v16h16h15.2H341h19c14.5,0,23.1-5.6,27.9-10.3c4.7-4.7,10.4-13.3,10.4-27.8c0-15,0-30.1,0-45.1c0-26.2,0-52.3,0-78.5
	c1.2,0,2.4,0,3.6,0c1.3,0,2.6,0,3.9,0c2.5,0,4.5,0,6.4-0.1c13-0.3,24-8.9,27.5-21.6c4.5-16.4-6.4-27.3-10-30.9
	c-40.7-40.7-82.1-82.1-122.2-122.1L273.1,70C265.7,62.6,258.1,58.9,250,58.9L250,58.9z"/>
</svg>
