<?xml version="1.0" encoding="utf-8"?>
<!-- Generator: Adobe Illustrator 27.2.0, SVG Export Plug-In . SVG Version: 6.00 Build 0)  -->
<svg version="1.1" id="Layer_1" xmlns="http://www.w3.org/2000/svg" xmlns:xlink="http://www.w3.org/1999/xlink" x="0px" y="0px"
	 viewBox="0 0 500 500" style="enable-background:new 0 0 500 500;" xml:space="preserve">
<g id="mRMkHf_00000039840428402525336070000009318436502006854325_">
	<g>
		<path d="M257,312.7c19.6,0,39.3,0.1,58.9,0.3c47.7,0.5,88.9,35.4,97.8,82c0.3,1.7,0.2,3.6,0.3,6.1c-109.5,0-218.2,0-327.6,0
			c3.2-23.9,13.4-43.5,30.2-59.6c19-18.3,41.7-28.4,68.2-28.5C209,312.8,233,312.7,257,312.7 M257,294.7c-25,0-49.4,0.1-72.2,0.3
			c-30.6,0.2-57.7,11.5-80.6,33.5c-19.9,19.2-31.9,42.8-35.5,70.2l-1.2,9.3c-0.8,5.9,3.8,11.1,9.7,11.1h9.4h327.6h8.6
			c5.6,0,10-4.7,9.8-10.3l-0.4-8.6c0-0.6,0-1.1,0-1.8c0-1.8-0.1-4.1-0.6-6.8c-5.1-26.6-19.5-51-40.5-68.7
			c-21.1-17.7-47.7-27.7-74.9-27.9C297.9,294.8,278.5,294.7,257,294.7L257,294.7z"/>
		<path d="M250,99c41.6,0,75.6,34.1,75.6,75.8c0,41.8-34,76-75.6,76c0,0,0,0-0.1,0c-41.4,0-76-34.4-76.1-75.8s34.4-75.9,75.9-76
			C249.9,99,250,99,250,99 M250,81h-0.3c-24.9,0.1-48.4,9.9-66.3,27.8s-27.7,41.4-27.6,66.2c0.1,24.8,9.9,48.3,27.8,66.1
			s41.4,27.6,66.2,27.6l0,0l0,0c51.6,0,93.6-42.2,93.6-94C343.6,123,301.6,81,250,81L250,81z"/>
	</g>
</g>
</svg>
