<?xml version="1.0" encoding="utf-8"?>
<!-- Generator: Adobe Illustrator 27.2.0, SVG Export Plug-In . SVG Version: 6.00 Build 0)  -->
<svg version="1.1" id="Layer_1" xmlns="http://www.w3.org/2000/svg" xmlns:xlink="http://www.w3.org/1999/xlink" x="0px" y="0px"
	 viewBox="0 0 500 500" style="enable-background:new 0 0 500 500;" xml:space="preserve">
<g>
	<path d="M350.8,442c-0.7-0.5-1.5-0.9-2.1-1.5c-2.6-2.2-3.8-4.9-2.7-8.3c1.1-3.3,3.5-5.1,7-5.2c6,0,12,0,18,0
		c9-0.1,14.3-5.3,14.3-14.1c0-36.8,0-73.6,0-110.4c0-1,0-2,0-3.5c-1.5,0-2.8,0-4.1,0c-12.3,0-24.7-0.1-37,0c-3.4,0-6.1-1-7.9-4
		c-1.8-3.1-1-5.9,0.8-8.7c4.8-7.6,4.6-16.2-0.3-23.1c-4.7-6.5-13-9.7-20.9-7.5c-8.5,2.3-13.6,8.1-15,16.8c-0.8,4.9,0.4,9.4,3.2,13.5
		c2,2.9,2.7,5.9,1,9.1c-1.8,3.3-4.8,3.9-8.3,3.9c-11.7-0.1-23.5,0-35.2,0c-1.3,0-2.7,0-4.4,0c0,6,0,11.7,0,17.4
		c0,7.1-0.1,14.2,0,21.3c0.1,3.8-0.1,7.3-4,9.3c-3.8,1.9-6.9,0.4-10-1.9c-4.9-3.7-10.4-5.2-16.5-3.6c-8.2,2.2-13.4,7.6-15.1,15.9
		c-1.6,7.9,2.2,15.9,9.1,20.2c6.9,4.4,15.4,4.1,22.1-0.6c0.7-0.5,1.4-1.1,2.1-1.6c2.5-1.9,5.3-2.2,8.1-0.8c2.8,1.4,4.2,3.7,4.2,6.9
		c0,13.6,0,27.2,0,40.8c0,1.4,0,2.7,0,4.7c1.6,0,3,0,4.4,0c7.6,0,15.2,0,22.8,0c5.9,0,8.6,1.5,9.8,5.5c1,3.5-0.4,6.3-4.9,9.5
		c-55.9,0-111.8,0-167.7,0c-2.4-1-4.9-1.8-7.1-3c-9.6-5-15.2-13-15.3-23.9c-0.2-41-0.1-82.1-0.1-123.1c0-5.6,2.9-8,9.3-8
		c37.8,0,75.6,0,113.4,0c20.1,0,40.2,0,60.3,0c1.3,0,2.7,0,4.4,0c-2.6-13.4,0.4-24.9,10.1-34.2c7.2-6.9,15.9-10.2,25.8-9.8
		c21.3,0.8,34,17.9,32.6,44c11.7,0,23.4,0,35.2,0c1.7,0,3.6-0.1,5.2,0.5c3.2,1.2,4.9,3.7,4.9,7.2c0,7.9,0,15.7,0,23.6
		c0,31.9,0,63.9,0,95.8c0,16.6-6.2,25.2-22,30.5c-0.2,0.1-0.3,0.3-0.5,0.5C368.7,442,359.8,442,350.8,442z M241.9,327.3
		c0-9.5,0-18.8,0-28c-42.7,0-85.2,0-127.8,0c0,1.5,0,2.8,0,4c0,36.3,0,72.6,0,108.9c0,9.9,5,14.9,15,14.9c36.3,0,72.6,0,108.9,0
		c1.3,0,2.6,0,3.9,0c0-11.2,0-21.8,0-32.5c-19.4,2.9-32.4-1.9-40.5-15.5c-7.6-12.8-7.4-25.8,1.1-38
		C212.2,327.4,225.7,323.5,241.9,327.3z"/>
	<path d="M317.8,442c-2.7-2.2-5.6-4.4-4.9-8.4c0.6-3.5,2.7-5.8,6.3-6.4c3.3-0.6,6.7,1.2,8,4.2c1.3,3.3,0.8,6.3-1.9,8.8
		c-0.7,0.6-1.5,1.2-2.2,1.8C321.3,442,319.6,442,317.8,442z"/>
	<path d="M217.5,238.8c-9.2,14.5-21.7,20.9-38.3,18.2c-13.2-2.2-24.7-13.3-27.3-26.6c-3.4-17,3.2-29.9,17.9-39.2c-1-1-1.8-2-2.7-3
		c-7.6-7.6-15.2-15.2-22.8-22.8c-4.5-4.6-4.5-8.4,0-12.9c28.4-28.4,56.8-56.9,85.2-85.2c11.7-11.6,28.5-11.7,40.1-0.1
		c28.6,28.4,57,57,85.5,85.5c4.4,4.4,4.4,8.3,0,12.7c-11,11.1-22.1,22-33,33.1c-2.5,2.5-5.2,4.1-8.7,3.1c-3.5-1-4.9-3.7-5.7-7.1
		c-2.6-10.9-11.7-17.3-22.4-15.9c-10,1.3-17.4,10.4-17,20.9c0.3,8.2,6.1,15.7,14,18c1.1,0.3,2.2,0.5,3.3,0.8
		c5.9,1.6,8.2,8.2,3.9,12.6c-11.4,11.7-23,23.2-34.7,34.7c-3.5,3.4-7.6,3-11.3-0.7c-7.8-7.7-15.5-15.5-23.3-23.3
		C219.5,240.6,218.6,239.8,217.5,238.8z M269.8,228.3c-20.1-13.3-20.7-38.5-7.9-53.1c6.5-7.4,14.7-11.4,24.5-11.8
		c13.9-0.6,24.4,5.5,31.7,16.3c7.2-7.2,14.2-14.2,21.3-21.3c-0.6-0.6-1.4-1.5-2.3-2.4c-25.6-25.6-51.2-51.2-76.8-76.7
		c-7.5-7.5-14.1-7.5-21.6,0c-25.7,25.7-51.4,51.3-77,77c-0.8,0.8-1.6,1.8-2.5,2.8c9.8,9.8,19.4,19.5,29.1,29
		c2.7,2.6,4.5,5.4,3.2,9.3c-1.2,3.6-4.1,4.8-7.8,5.3c-13.1,1.9-20.8,13.9-16.8,26c2.9,8.9,11.2,14.5,20.4,13.8
		c9.6-0.7,16.7-7.2,18.3-16.8c0.6-3.9,1.4-7.5,5.7-8.8c4.2-1.3,7,1.1,9.8,3.9c8.5,8.6,17.1,17.1,25.7,25.7c0.9,0.9,1.9,1.8,2.5,2.4
		C256.3,241.8,263,235.1,269.8,228.3z"/>
</g>
</svg>
