<?xml version="1.0" encoding="utf-8"?>
<!-- Generator: Adobe Illustrator 27.4.0, SVG Export Plug-In . SVG Version: 6.00 Build 0)  -->
<svg version="1.1" id="Layer_1" xmlns="http://www.w3.org/2000/svg" xmlns:xlink="http://www.w3.org/1999/xlink" x="0px" y="0px"
	 viewBox="0 0 100 100" style="enable-background:new 0 0 100 100;" xml:space="preserve">
<g>
	<path d="M23.6,97.5c-0.4-0.2-0.8-0.4-1.2-0.6c-1.5-0.9-2.4-2.2-2.5-4c0-1.1,0-2.1,0-3.4c-0.7,0-1.6,0-2.5,0c-4.5-0.1-8-3.1-8.5-7.6
		c-0.1-1,0-2.1,0.2-3c2.2-10.4,4.5-20.7,6.8-31.1c0.9-3.9,3.8-6.5,8-7c1.4-0.2,2.7-0.4,4.1-0.6c-0.4-1.8-0.9-3.5-1.3-5.3
		c-1-5.4,0.1-10.5,2.6-15.4c3-6,7.2-10.9,12.9-14.6c5.2-3.4,10.4-3.6,15.6-0.2c8,5.2,13.4,12.3,15.7,21.6c1,4.3,0.4,8.5-0.9,12.7
		c-0.1,0.3-0.2,0.5-0.3,0.8c0,0.1,0,0.1,0,0.3c1.6,0.2,3.2,0.5,4.8,0.7c3.8,0.6,6.4,3.2,7.3,6.9C86.4,58.3,88.7,68.7,91,79
		c1.2,5.4-2.7,10.3-8.2,10.5c-0.9,0-1.8,0-2.9,0c0.6,3.5,0.4,6.6-3.5,7.9C58.8,97.5,41.2,97.5,23.6,97.5z M71.4,86.3
		c0-0.3,0.1-0.6,0.1-0.9c0.7-5.2,1.3-10.5,2-15.7c0.6-4.8,1.2-9.6,1.8-14.5c0.2-1.3-0.2-2.4-1.3-3c-0.7-0.4-1.6-0.6-2.5-0.6
		c-14.4,0-28.7,0-43.1,0c-0.2,0-0.5,0-0.7,0c-2,0.1-3.2,1.6-3,3.6c0.1,1.4,0.3,2.8,0.5,4.1c0.9,7.3,1.8,14.5,2.7,21.8
		c0.2,1.7,0.4,3.5,0.7,5.3C42.9,86.3,57.1,86.3,71.4,86.3z M60,48.4c0.7,0,1.5,0,2.2,0c0.7,0.1,1.3-0.2,1.7-0.8
		c1.2-1.6,2.5-3.2,3.5-4.9c2.6-4.6,4-9.6,2.9-14.9c-1.9-9.1-7.3-15.7-15-20.6c-3.7-2.3-7.3-2-11,0.2c-4.8,3-8.5,7-11.3,11.8
		c-2.1,3.6-3.7,7.6-3.5,11.8c0.2,6.4,2.6,12,7,16.7c0.2,0.2,0.4,0.4,0.7,0.5c1,0.1,2,0,3.1,0c-0.1-0.2-0.1-0.3-0.2-0.3
		c-5.1-4.1-7.2-9.6-7.4-15.9c-0.1-2,0.7-3.7,2.2-5c1.4-1.3,3.1-2.1,4.9-2.6c6.1-1.9,12.3-2,18.5-0.6c2.5,0.5,4.9,1.4,6.9,3
		c1.4,1.2,2.4,2.7,2.4,4.6c0,3.9-0.7,7.6-2.7,11C63.5,44.8,61.9,46.6,60,48.4z M32.5,48.4c-1-1.7-2-3.2-2.9-4.7
		c-0.1-0.2-0.4-0.3-0.7-0.3c-1.8,0.2-3.6,0.5-5.4,0.8c-2.5,0.4-4,1.9-4.5,4.3c-1,4.3-1.9,8.7-2.9,13c-1.4,6.2-2.8,12.4-4,18.7
		c-0.6,3.1,1.8,6.1,5.1,6.2c2.6,0.1,5.1,0,7.7,0c0.1,0,0.3,0,0.5-0.1c0-0.3,0-0.5,0-0.8c-0.5-3.6-0.9-7.3-1.4-10.9
		c-0.8-6.3-1.6-12.5-2.3-18.8c-0.5-4.5,2.2-7.4,6.7-7.5C29.7,48.4,31,48.4,32.5,48.4z M74.6,86.4c2.6,0,5.1,0,7.5,0
		c0.5,0,0.9,0,1.4-0.1c2.9-0.5,4.9-3.3,4.4-6.2c-0.4-2.4-1-4.8-1.5-7.2c-1.8-8.1-3.6-16.3-5.4-24.4c-0.5-2.5-2.1-3.9-4.6-4.4
		c-1.8-0.3-3.5-0.5-5.3-0.8c-0.2,0-0.5,0.1-0.6,0.2c-1,1.6-1.9,3.1-3,4.8c0.4,0,0.7,0,1.1,0c1.3,0,2.7,0,4,0.1
		c3.2,0.2,5.6,2.5,5.9,5.8c0.1,1.1-0.1,2.2-0.2,3.3c-0.8,6.7-1.7,13.4-2.5,20.1C75.3,80.5,75,83.3,74.6,86.4z M50,94.3
		c2.6,0,5.1,0,7.7,0c5.7,0,11.4,0,17.2,0c0.8,0,1.5-0.1,1.9-0.9c1-2,0-3.9-2.3-3.9c-16.3,0-32.6,0-48.9,0c-2.2,0-2.5,0.4-2.5,2.5
		c0,1.8,0.5,2.2,2.3,2.2C33.5,94.3,41.8,94.3,50,94.3z M49.5,42c3.4,0,5.5-1.5,7.1-3.7c2.1-2.9,3.1-6.3,4-9.7
		c0.2-0.6-0.3-0.7-0.7-0.9c-2.7-0.9-5.4-1.4-8.2-1.5c-4-0.2-7.9,0.2-11.7,1.6c-0.4,0.1-0.8,0.2-0.6,0.8c0.9,3.6,1.9,7,4.2,10
		C45.2,40.7,47.2,42.1,49.5,42z M36.2,30c-0.2,0.8-0.5,1.4-0.5,2.1c0,3.1,0.7,6.1,2.2,8.9c3.7,6.7,11.5,9.3,18,6
		c6.4-3.3,8.4-9.9,8.3-15.3c0-0.5-0.3-1-0.5-1.6c-0.2,0.2-0.2,0.2-0.2,0.2c-0.1,0.3-0.2,0.6-0.3,1c-1,3.7-2.4,7.1-4.9,10.1
		c-4.4,5.2-12,5.3-16.5,0.1c-1-1.2-1.9-2.5-2.6-3.8C38.1,35.2,37.3,32.7,36.2,30z"/>
	<path d="M49.9,61.1c4.4,0,8,3.5,8,7.9c0,4.3-3.5,7.9-7.8,7.9c-4.4,0-8.1-3.5-8-8C42.1,64.6,45.6,61.1,49.9,61.1z M50,73.7
		c2.6,0,4.7-2.1,4.7-4.7c0-2.6-2.1-4.7-4.8-4.7c-2.6,0-4.7,2.1-4.7,4.7C45.3,71.6,47.4,73.7,50,73.7z"/>
</g>
</svg>
