<?xml version="1.0" encoding="utf-8"?>
<!-- Generator: Adobe Illustrator 27.4.0, SVG Export Plug-In . SVG Version: 6.00 Build 0)  -->
<svg version="1.1" id="Layer_1" xmlns="http://www.w3.org/2000/svg" xmlns:xlink="http://www.w3.org/1999/xlink" x="0px" y="0px"
	 viewBox="0 0 100 100" style="enable-background:new 0 0 100 100;" xml:space="preserve">
<g>
	<path d="M11.1,71.2c-1.7-0.7-3.3-1.3-4.9-1.9c-0.8-0.3-1.6-0.6-1.5-1.5c0.1-0.6,0.6-1.3,1.1-1.7c3.2-2.4,6.5-4.8,9.8-7.2
		c-3.9-1.1-6-3.5-6-7.5C9.1,51.2,8.5,51.2,8,51c-2.2-0.7-3.2-3.3-2-5.3c0.6-1,1.2-1.9,1.9-2.8c0.7-0.9,0.8-1.8,0.6-2.9
		c-0.6-3.6-1.2-7.3-1.7-10.9c-0.6-4.3,1.8-8.7,5.8-10.4c4.9-2.1,9.8-4,14.7-5.8c4.4-1.6,9.1,0.2,11.8,4.2c1.9,2.8,3.8,5.7,5.6,8.5
		c0.5,0.8,1.1,1.4,2.3,1.3c0-0.4,0.1-0.8,0.1-1.2c0-7,0-14,0-21c0-2,0.4-2.4,2.4-2.4c14.5,0,29,0,43.5,0c1.9,0,2.4,0.4,2.4,2.3
		c0,30.1,0,60.2,0,90.3c0,0.4,0,0.8-0.1,1.2c-0.2,0.8-0.8,1.2-1.6,1.1c-0.8-0.1-1.3-0.5-1.4-1.3c-0.1-0.4,0-0.8,0-1.2
		c0-29.2,0-58.5,0-87.7c0-0.5,0-1,0-1.5c-14,0-27.9,0-42,0c0,0.5,0,1,0,1.5c0,29.2,0,58.3,0,87.5c0,0.4,0,0.9,0,1.3
		c-0.1,0.9-0.6,1.4-1.5,1.4c-1,0-1.5-0.6-1.5-1.6c0-1.7-0.1-3.5,0-5.2c0.1-2.2-1.2-4.1-1.8-6.1c-0.1-0.2-0.4-0.4-0.7-0.5
		c-10-3.9-20.1-7.8-30.1-11.7c-0.1,0-0.1,0-0.3,0c-1,3.4-1.9,6.8-2.9,10.2c2.1,0.3,4.1,0.6,6.1,1c6.7,1.6,12,5.4,15.9,11.1
		c0.5,0.7,0.7,1.4,0.1,2c-0.4,0.4-1.1,0.6-1.6,0.5c-0.4,0-0.8-0.6-1.1-1c-3.7-5.4-8.8-8.6-15.2-9.9c-1.2-0.2-2.4-0.3-3.8-0.5
		c0.1,0.4,0.2,0.7,0.3,1c1,2.5,1.9,5,2.9,7.4c0.1,0.3,0.2,0.6,0.3,0.9c0.3,0.9,0,1.6-0.8,2c-0.8,0.4-1.7,0-2.1-0.9
		c-1.5-3.8-3-7.7-4.5-11.6c-0.2-0.5-0.1-1.2,0.1-1.7c1-3.6,2-7.2,3.1-10.9C11,71.9,11,71.6,11.1,71.2z M44.5,39.6
		c-3.2,2.1-6.4,4-9.4,6.1c-1.8,1.2-3.6,1.8-5.7,2.1c-3.6,0.5-7.1,1.2-10.8,1.9c1.2,3.1,2.2,6.1,3.7,9c2.3,4.7,6.4,7.4,11.6,7.7
		c5.4,0.3,9.6-2,12.5-6.5c0.4-0.7,0.7-1.6,0.7-2.4c0.1-3.5,0-6.9,0-10.4c0-0.4,0-0.8-0.1-1.2C46.2,43.8,45.3,41.7,44.5,39.6z
		 M47.1,32.6c0-0.7,0-1.2,0-1.6c0-0.2-0.1-0.6-0.3-0.6c-0.9-0.1-2-0.6-2.8-0.3c-10.5,4-21,8.1-31.5,12.2c-0.3,0.1-0.7,0.3-0.8,0.5
		c-1,1.4-2,2.9-3,4.4c-0.4,0.6-0.1,0.9,0.5,0.9c0.3,0,0.6-0.1,0.9-0.1c6-1,12-2.1,18-3.1c2.2-0.3,4.1-1.1,6-2.3
		c3.7-2.5,7.5-4.9,11.3-7.3C46.6,34.5,47.5,33.9,47.1,32.6z M10.1,31.3c9.3-3.6,18.4-7.2,27.5-10.7c-0.5-0.7-0.8-1.2-1.1-1.7
		c-2-2.8-5.3-3.9-8.6-2.7c-4.5,1.7-9.1,3.5-13.6,5.3c-2.6,1-4.1,3-4.4,5.8C9.8,28.4,10,29.7,10.1,31.3z M11.5,39.3
		c10.3-4,20.4-8,30.6-11.9c-1-1.5-1.9-2.9-2.7-4.1c-0.2,0-0.2,0-0.2,0c-9.3,3.6-18.6,7.2-27.8,10.8c-0.3,0.1-0.6,0.7-0.5,1
		C11,36.4,11.3,37.8,11.5,39.3z M31.5,75.7c0-0.1,0.1-0.1,0.1-0.2c-0.3-0.2-0.7-0.5-1-0.7C26,71.9,21.4,69,16.8,66
		c-0.5-0.3-1-1.1-1-1.6c0-0.5,0.7-1.1,1.3-1.4c1-0.5,2.1-0.9,3.2-1.3c-0.3-0.6-0.6-1.2-1-1.8c-3.3,2.4-6.6,4.8-9.9,7.2
		C16.9,70.1,24.2,72.9,31.5,75.7z M40.8,69.3c-0.6,1.4-1.2,2.6-1.7,3.9c-0.1,0.2-0.1,0.7,0.1,0.9c1.8,1.8,3.7,3.6,5.7,5.5
		c0.2-2.8,0.3-5.3,0.4-7.8c0-0.2-0.3-0.5-0.5-0.6C43.6,70.5,42.3,69.9,40.8,69.3z M15.5,50.2c-0.7,0.1-1.4,0.2-2,0.3
		c-0.3,0.1-0.6,0.3-0.7,0.6c-0.7,2.5,2,5.1,4.6,4.3C16.8,53.7,16.2,52,15.5,50.2z M20.8,64.9c4.2,2.6,8.3,5.3,12.4,7.9
		c-1.8-1.8-3.2-3.9-5.7-5c-1.6-0.7-3-1.7-4.3-2.9C22.3,64.2,21.7,64.3,20.8,64.9z M43.5,67c0.8,0.4,1.5,0.6,2.2,1
		c0-1,0.1-1.7,0.1-2.7C45,65.9,44.3,66.4,43.5,67z M36.5,71.4c0.3-0.8,0.6-1.4,0.9-2.1c-1,0.1-1.8,0.2-2.6,0.3
		C35.3,70.1,35.9,70.7,36.5,71.4z"/>
</g>
</svg>
